<?xml version="1.0" encoding="iso-8859-1"?>
<!-- Generator: Adobe Illustrator 19.0.0, SVG Export Plug-In . SVG Version: 6.00 Build 0)  -->
<svg version="1.1" id="Capa_1" xmlns="http://www.w3.org/2000/svg" xmlns:xlink="http://www.w3.org/1999/xlink" x="0px" y="0px"
	 viewBox="0 0 512 512" style="enable-background:new 0 0 512 512;" xml:space="preserve">
<path style="fill:#FEA832;" d="M212,378.25v30c0,34.2-46,60-106,60s-106-25.8-106-60v-30H212z"/>
<path style="fill:#FE9923;" d="M212,378.25v30c0,34.2-46,60-106,60v-90H212z"/>
<path style="fill:#FEA832;" d="M212,348.25v30c0,34.2-46,60-106,60s-106-25.8-106-60v-30H212z"/>
<path style="fill:#FE9923;" d="M212,348.25v30c0,34.2-46,60-106,60v-90H212z"/>
<path style="fill:#FEDB41;" d="M212,348.25v30c0,34.2-46,60-106,60s-106-25.8-106-60v-30H212z"/>
<path style="fill:#FFCC33;" d="M212,348.25v30c0,34.2-46,60-106,60v-90H212z"/>
<path style="fill:#FEA832;" d="M212,318.25v30c0,34.2-46,60-106,60s-106-25.8-106-60v-30H212z"/>
<path style="fill:#FE9923;" d="M212,318.25v30c0,34.2-46,60-106,60v-90H212z"/>
<path style="fill:#FEDB41;" d="M212,288.25v30c0,34.2-46,60-106,60s-106-25.8-106-60v-30H212z"/>
<path style="fill:#FFCC33;" d="M212,288.25v30c0,34.2-46,60-106,60v-90H212z"/>
<path style="fill:#FEA832;" d="M212,258.25v30c0,34.2-46,60-106,60s-106-25.8-106-60v-30H212z"/>
<path style="fill:#FE9923;" d="M212,258.25v30c0,34.2-46,60-106,60v-90H212z"/>
<path style="fill:#FEDB41;" d="M212,228.25v30c0,34.2-46,60-106,60s-106-25.8-106-60v-30H212z"/>
<path style="fill:#FFCC33;" d="M212,228.25v30c0,34.2-46,60-106,60v-90H212z"/>
<path style="fill:#FEA832;" d="M212,198.25v30c0,34.2-46,60-106,60s-106-25.8-106-60v-30H212z"/>
<path style="fill:#FE9923;" d="M212,198.25v30c0,34.2-46,60-106,60v-90H212z"/>
<path style="fill:#FEDB41;" d="M212,168.25v30c0,34.2-46,60-106,60s-106-25.8-106-60v-30H212z"/>
<path style="fill:#FFCC33;" d="M212,168.25v30c0,34.2-46,60-106,60v-90H212z"/>
<path style="fill:#FEA832;" d="M212,138.25v30c0,34.2-46,60-106,60s-106-25.8-106-60v-30H212z"/>
<path style="fill:#FE9923;" d="M212,138.25v30c0,34.2-46,60-106,60v-90H212z"/>
<path style="fill:#FEDB41;" d="M212,108.25v30c0,34.2-46,60-106,60s-106-25.8-106-60v-30H212z"/>
<path style="fill:#FFCC33;" d="M212,108.25v30c0,34.2-46,60-106,60v-90H212z"/>
<path style="fill:#FEA832;" d="M212,78.25v30c0,34.2-46,60-106,60s-106-25.8-106-60v-30H212z"/>
<path style="fill:#FE9923;" d="M212,78.25v30c0,34.2-46,60-106,60v-90H212z"/>
<path style="fill:#FEDB41;" d="M106,18.25c-60,0-106,25.8-106,60s46,60,106,60s106-25.8,106-60S166,18.25,106,18.25z"/>
<path style="fill:#FFCC33;" d="M212,78.25c0,34.2-46,60-106,60v-120C166,18.25,212,44.05,212,78.25z"/>
<path style="fill:#FEA832;" d="M422,378.25v30c0,34.2-45,60-105,60s-105-25.8-105-60v-30H422z"/>
<path style="fill:#FE9923;" d="M422,378.25v30c0,34.2-45,60-105,60v-90H422z"/>
<path style="fill:#FEDB41;" d="M422,348.25v30c0,34.2-45,60-105,60s-105-25.8-105-60v-30H422z"/>
<path style="fill:#FFCC33;" d="M422,348.25v30c0,34.2-45,60-105,60v-90H422z"/>
<path style="fill:#FEA832;" d="M422,318.25v30c0,34.2-45,60-105,60s-105-25.8-105-60v-30H422z"/>
<path style="fill:#FE9923;" d="M422,318.25v30c0,34.2-45,60-105,60v-90H422z"/>
<path style="fill:#FEDB41;" d="M422,288.25v30c0,34.2-45,60-105,60s-105-25.8-105-60v-30H422z"/>
<path style="fill:#FFCC33;" d="M422,288.25v30c0,34.2-45,60-105,60v-90H422z"/>
<path style="fill:#FEA832;" d="M422,258.25v30c0,34.2-45,60-105,60s-105-25.8-105-60v-30H422z"/>
<path style="fill:#FE9923;" d="M422,258.25v30c0,34.2-45,60-105,60v-90H422z"/>
<path style="fill:#FEDB41;" d="M422,228.25v30c0,34.2-45,60-105,60s-105-25.8-105-60v-30H422z"/>
<path style="fill:#FFCC33;" d="M422,228.25v30c0,34.2-45,60-105,60v-90H422z"/>
<path style="fill:#FEA832;" d="M422,198.25v30c0,34.2-45,60-105,60s-105-25.8-105-60v-30H422z"/>
<path style="fill:#FE9923;" d="M422,198.25v30c0,34.2-45,60-105,60v-90H422z"/>
<path style="fill:#FEDB41;" d="M422,168.25v30c0,34.2-45,60-105,60s-105-25.8-105-60v-30H422z"/>
<path style="fill:#FFCC33;" d="M422,168.25v30c0,34.2-45,60-105,60v-90H422z"/>
<path style="fill:#FEA832;" d="M422,138.25v30c0,34.2-45,60-105,60s-105-25.8-105-60v-30H422z"/>
<path style="fill:#FE9923;" d="M422,138.25v30c0,34.2-45,60-105,60v-90H422z"/>
<path style="fill:#FEDB41;" d="M317,78.25c-60,0-105,25.8-105,60s45,60,105,60s105-25.8,105-60S377,78.25,317,78.25z"/>
<path style="fill:#FFCC33;" d="M422,138.25c0,34.2-45,60-105,60v-120C377,78.25,422,104.05,422,138.25z"/>
<path style="fill:#FEA832;" d="M392,253.75c-66.301,0-120,53.701-120,120c0,66.301,53.699,120,120,120s120-53.699,120-120
	C512,307.451,458.301,253.75,392,253.75z"/>
<path style="fill:#FE9923;" d="M512,373.75c0,66.301-53.699,120-120,120v-240C458.301,253.75,512,307.451,512,373.75z"/>
<path style="fill:#FEDB41;" d="M392,283.75c-49.501,0-90,40.501-90,90c0,49.501,40.499,90,90,90s90-40.499,90-90
	C482,324.251,441.501,283.75,392,283.75z"/>
<path style="fill:#FFCC33;" d="M482,373.75c0,49.501-40.499,90-90,90v-180C441.501,283.75,482,324.251,482,373.75z"/>
<g>
</g>
<g>
</g>
<g>
</g>
<g>
</g>
<g>
</g>
<g>
</g>
<g>
</g>
<g>
</g>
<g>
</g>
<g>
</g>
<g>
</g>
<g>
</g>
<g>
</g>
<g>
</g>
<g>
</g>
</svg>
