<?xml version="1.0" encoding="UTF-8" standalone="no" ?>
<!DOCTYPE svg PUBLIC "-//W3C//DTD SVG 1.1//EN" "http://www.w3.org/Graphics/SVG/1.1/DTD/svg11.dtd">
<svg xmlns="http://www.w3.org/2000/svg" xmlns:xlink="http://www.w3.org/1999/xlink" version="1.1" width="350" height="350" viewBox="0 0 350 350" xml:space="preserve">
<desc>Created with Fabric.js 1.7.22</desc>
<defs>
</defs>
<g id="icon" style="stroke: none; stroke-width: 1; stroke-dasharray: none; stroke-linecap: butt; stroke-linejoin: miter; stroke-miterlimit: 10; fill: none; fill-rule: nonzero; opacity: 1;" transform="translate(-1.9444444444444287 -1.9444444444444287) scale(3.89 3.89)" >
	<path d="M 10.061 72.038 v 6.288 c 0 2.662 17.332 4.821 38.712 4.821 s 38.712 -2.158 38.712 -4.821 v -6.288 H 10.061 z" style="stroke: none; stroke-width: 1; stroke-dasharray: none; stroke-linecap: butt; stroke-linejoin: miter; stroke-miterlimit: 10; fill: rgb(228,175,24); fill-rule: nonzero; opacity: 1;" transform=" matrix(1 0 0 1 0 0) " stroke-linecap="round" />
	<path d="M 47.515 76.855 v 6.288 c 0.419 0.002 0.836 0.004 1.258 0.004 s 0.839 -0.002 1.258 -0.004 v -6.288 c -0.419 0.002 -0.836 0.004 -1.258 0.004 S 47.934 76.856 47.515 76.855 z" style="stroke: none; stroke-width: 1; stroke-dasharray: none; stroke-linecap: butt; stroke-linejoin: miter; stroke-miterlimit: 10; fill: rgb(196,146,20); fill-rule: nonzero; opacity: 1;" transform=" matrix(1 0 0 1 0 0) " stroke-linecap="round" />
	<path d="M 55.061 83.082 c 0.849 -0.017 1.686 -0.038 2.515 -0.062 v -6.288 c -0.829 0.024 -1.667 0.045 -2.515 0.062 V 83.082 z" style="stroke: none; stroke-width: 1; stroke-dasharray: none; stroke-linecap: butt; stroke-linejoin: miter; stroke-miterlimit: 10; fill: rgb(196,146,20); fill-rule: nonzero; opacity: 1;" transform=" matrix(1 0 0 1 0 0) " stroke-linecap="round" />
	<path d="M 62.606 82.828 c 0.853 -0.041 1.692 -0.085 2.515 -0.133 v -6.288 c -0.823 0.048 -1.662 0.092 -2.515 0.133 V 82.828 z" style="stroke: none; stroke-width: 1; stroke-dasharray: none; stroke-linecap: butt; stroke-linejoin: miter; stroke-miterlimit: 10; fill: rgb(196,146,20); fill-rule: nonzero; opacity: 1;" transform=" matrix(1 0 0 1 0 0) " stroke-linecap="round" />
	<path d="M 70.151 82.344 c 0.865 -0.071 1.701 -0.148 2.515 -0.227 v -6.288 c -0.814 0.08 -1.651 0.156 -2.515 0.227 V 82.344 z" style="stroke: none; stroke-width: 1; stroke-dasharray: none; stroke-linecap: butt; stroke-linejoin: miter; stroke-miterlimit: 10; fill: rgb(196,146,20); fill-rule: nonzero; opacity: 1;" transform=" matrix(1 0 0 1 0 0) " stroke-linecap="round" />
	<path d="M 77.697 81.528 c 0.892 -0.125 1.73 -0.256 2.515 -0.392 v -6.288 c -0.785 0.136 -1.623 0.267 -2.515 0.392 V 81.528 z" style="stroke: none; stroke-width: 1; stroke-dasharray: none; stroke-linecap: butt; stroke-linejoin: miter; stroke-miterlimit: 10; fill: rgb(196,146,20); fill-rule: nonzero; opacity: 1;" transform=" matrix(1 0 0 1 0 0) " stroke-linecap="round" />
	<path d="M 39.97 83.02 c 0.829 0.024 1.667 0.045 2.515 0.062 v -6.288 c -0.849 -0.017 -1.686 -0.038 -2.515 -0.062 V 83.02 z" style="stroke: none; stroke-width: 1; stroke-dasharray: none; stroke-linecap: butt; stroke-linejoin: miter; stroke-miterlimit: 10; fill: rgb(196,146,20); fill-rule: nonzero; opacity: 1;" transform=" matrix(1 0 0 1 0 0) " stroke-linecap="round" />
	<path d="M 32.424 82.696 c 0.823 0.048 1.662 0.092 2.515 0.133 V 76.54 c -0.853 -0.041 -1.692 -0.085 -2.515 -0.133 V 82.696 z" style="stroke: none; stroke-width: 1; stroke-dasharray: none; stroke-linecap: butt; stroke-linejoin: miter; stroke-miterlimit: 10; fill: rgb(196,146,20); fill-rule: nonzero; opacity: 1;" transform=" matrix(1 0 0 1 0 0) " stroke-linecap="round" />
	<path d="M 24.879 82.117 c 0.814 0.08 1.651 0.156 2.515 0.227 v -6.288 c -0.865 -0.071 -1.701 -0.148 -2.515 -0.227 V 82.117 z" style="stroke: none; stroke-width: 1; stroke-dasharray: none; stroke-linecap: butt; stroke-linejoin: miter; stroke-miterlimit: 10; fill: rgb(196,146,20); fill-rule: nonzero; opacity: 1;" transform=" matrix(1 0 0 1 0 0) " stroke-linecap="round" />
	<path d="M 17.333 81.137 c 0.785 0.136 1.623 0.267 2.515 0.392 v -6.288 c -0.892 -0.125 -1.73 -0.256 -2.515 -0.392 V 81.137 z" style="stroke: none; stroke-width: 1; stroke-dasharray: none; stroke-linecap: butt; stroke-linejoin: miter; stroke-miterlimit: 10; fill: rgb(196,146,20); fill-rule: nonzero; opacity: 1;" transform=" matrix(1 0 0 1 0 0) " stroke-linecap="round" />
	<path d="M 86.254 73.236 c -0.572 0.278 -1.326 0.548 -2.269 0.804 v 6.288 c 0.942 -0.257 1.697 -0.526 2.269 -0.804 V 73.236 z" style="stroke: none; stroke-width: 1; stroke-dasharray: none; stroke-linecap: butt; stroke-linejoin: miter; stroke-miterlimit: 10; fill: rgb(196,146,20); fill-rule: nonzero; opacity: 1;" transform=" matrix(1 0 0 1 0 0) " stroke-linecap="round" />
	<path d="M 11.271 73.226 v 6.288 c 0.574 0.282 1.336 0.555 2.29 0.814 V 74.04 C 12.606 73.781 11.845 73.508 11.271 73.226 z" style="stroke: none; stroke-width: 1; stroke-dasharray: none; stroke-linecap: butt; stroke-linejoin: miter; stroke-miterlimit: 10; fill: rgb(196,146,20); fill-rule: nonzero; opacity: 1;" transform=" matrix(1 0 0 1 0 0) " stroke-linecap="round" />
	<ellipse cx="48.772000000000006" cy="72.041" rx="38.712" ry="4.821" style="stroke: none; stroke-width: 1; stroke-dasharray: none; stroke-linecap: butt; stroke-linejoin: miter; stroke-miterlimit: 10; fill: rgb(255,217,73); fill-rule: nonzero; opacity: 1;" transform=" matrix(1 0 0 1 0 0) "/>
	<path d="M 0 61.977 v 6.288 c 0 2.662 17.332 4.821 38.712 4.821 s 38.712 -2.158 38.712 -4.821 v -6.288 H 0 z" style="stroke: none; stroke-width: 1; stroke-dasharray: none; stroke-linecap: butt; stroke-linejoin: miter; stroke-miterlimit: 10; fill: rgb(228,175,24); fill-rule: nonzero; opacity: 1;" transform=" matrix(1 0 0 1 0 0) " stroke-linecap="round" />
	<path d="M 37.455 66.794 v 6.288 c 0.419 0.002 0.836 0.004 1.258 0.004 s 0.839 -0.002 1.258 -0.004 v -6.288 c -0.419 0.002 -0.836 0.004 -1.258 0.004 S 37.873 66.796 37.455 66.794 z" style="stroke: none; stroke-width: 1; stroke-dasharray: none; stroke-linecap: butt; stroke-linejoin: miter; stroke-miterlimit: 10; fill: rgb(196,146,20); fill-rule: nonzero; opacity: 1;" transform=" matrix(1 0 0 1 0 0) " stroke-linecap="round" />
	<path d="M 45 73.022 c 0.849 -0.017 1.686 -0.038 2.515 -0.062 v -6.288 c -0.829 0.024 -1.667 0.045 -2.515 0.062 V 73.022 z" style="stroke: none; stroke-width: 1; stroke-dasharray: none; stroke-linecap: butt; stroke-linejoin: miter; stroke-miterlimit: 10; fill: rgb(196,146,20); fill-rule: nonzero; opacity: 1;" transform=" matrix(1 0 0 1 0 0) " stroke-linecap="round" />
	<path d="M 52.545 72.768 c 0.853 -0.041 1.692 -0.085 2.515 -0.133 v -6.288 c -0.823 0.048 -1.662 0.092 -2.515 0.133 V 72.768 z" style="stroke: none; stroke-width: 1; stroke-dasharray: none; stroke-linecap: butt; stroke-linejoin: miter; stroke-miterlimit: 10; fill: rgb(196,146,20); fill-rule: nonzero; opacity: 1;" transform=" matrix(1 0 0 1 0 0) " stroke-linecap="round" />
	<path d="M 60.091 72.284 c 0.865 -0.071 1.701 -0.148 2.515 -0.227 v -6.288 c -0.814 0.08 -1.651 0.156 -2.515 0.227 V 72.284 z" style="stroke: none; stroke-width: 1; stroke-dasharray: none; stroke-linecap: butt; stroke-linejoin: miter; stroke-miterlimit: 10; fill: rgb(196,146,20); fill-rule: nonzero; opacity: 1;" transform=" matrix(1 0 0 1 0 0) " stroke-linecap="round" />
	<path d="M 67.636 71.468 c 0.892 -0.125 1.73 -0.256 2.515 -0.392 v -6.288 c -0.785 0.136 -1.623 0.267 -2.515 0.392 V 71.468 z" style="stroke: none; stroke-width: 1; stroke-dasharray: none; stroke-linecap: butt; stroke-linejoin: miter; stroke-miterlimit: 10; fill: rgb(196,146,20); fill-rule: nonzero; opacity: 1;" transform=" matrix(1 0 0 1 0 0) " stroke-linecap="round" />
	<path d="M 29.909 72.959 c 0.829 0.024 1.667 0.045 2.515 0.062 v -6.288 c -0.849 -0.017 -1.686 -0.038 -2.515 -0.062 V 72.959 z" style="stroke: none; stroke-width: 1; stroke-dasharray: none; stroke-linecap: butt; stroke-linejoin: miter; stroke-miterlimit: 10; fill: rgb(196,146,20); fill-rule: nonzero; opacity: 1;" transform=" matrix(1 0 0 1 0 0) " stroke-linecap="round" />
	<path d="M 22.364 72.635 c 0.823 0.048 1.662 0.092 2.515 0.133 V 66.48 c -0.853 -0.041 -1.692 -0.085 -2.515 -0.133 V 72.635 z" style="stroke: none; stroke-width: 1; stroke-dasharray: none; stroke-linecap: butt; stroke-linejoin: miter; stroke-miterlimit: 10; fill: rgb(196,146,20); fill-rule: nonzero; opacity: 1;" transform=" matrix(1 0 0 1 0 0) " stroke-linecap="round" />
	<path d="M 14.818 72.057 c 0.814 0.08 1.651 0.156 2.515 0.227 v -6.288 c -0.865 -0.071 -1.701 -0.148 -2.515 -0.227 V 72.057 z" style="stroke: none; stroke-width: 1; stroke-dasharray: none; stroke-linecap: butt; stroke-linejoin: miter; stroke-miterlimit: 10; fill: rgb(196,146,20); fill-rule: nonzero; opacity: 1;" transform=" matrix(1 0 0 1 0 0) " stroke-linecap="round" />
	<path d="M 7.273 71.076 c 0.785 0.136 1.623 0.267 2.515 0.392 V 65.18 c -0.892 -0.125 -1.73 -0.256 -2.515 -0.392 V 71.076 z" style="stroke: none; stroke-width: 1; stroke-dasharray: none; stroke-linecap: butt; stroke-linejoin: miter; stroke-miterlimit: 10; fill: rgb(196,146,20); fill-rule: nonzero; opacity: 1;" transform=" matrix(1 0 0 1 0 0) " stroke-linecap="round" />
	<path d="M 76.193 63.176 c -0.572 0.278 -1.326 0.548 -2.269 0.804 v 6.288 c 0.942 -0.257 1.697 -0.526 2.269 -0.804 V 63.176 z" style="stroke: none; stroke-width: 1; stroke-dasharray: none; stroke-linecap: butt; stroke-linejoin: miter; stroke-miterlimit: 10; fill: rgb(196,146,20); fill-rule: nonzero; opacity: 1;" transform=" matrix(1 0 0 1 0 0) " stroke-linecap="round" />
	<path d="M 1.21 63.166 v 6.288 c 0.574 0.282 1.336 0.555 2.29 0.814 V 63.98 C 2.546 63.72 1.785 63.448 1.21 63.166 z" style="stroke: none; stroke-width: 1; stroke-dasharray: none; stroke-linecap: butt; stroke-linejoin: miter; stroke-miterlimit: 10; fill: rgb(196,146,20); fill-rule: nonzero; opacity: 1;" transform=" matrix(1 0 0 1 0 0) " stroke-linecap="round" />
	<ellipse cx="38.712" cy="61.980999999999995" rx="38.712" ry="4.821" style="stroke: none; stroke-width: 1; stroke-dasharray: none; stroke-linecap: butt; stroke-linejoin: miter; stroke-miterlimit: 10; fill: rgb(255,217,73); fill-rule: nonzero; opacity: 1;" transform=" matrix(1 0 0 1 0 0) "/>
	<path d="M 12.576 51.917 v 6.288 c 0 2.662 17.332 4.821 38.712 4.821 S 90 60.867 90 58.205 v -6.288 H 12.576 z" style="stroke: none; stroke-width: 1; stroke-dasharray: none; stroke-linecap: butt; stroke-linejoin: miter; stroke-miterlimit: 10; fill: rgb(228,175,24); fill-rule: nonzero; opacity: 1;" transform=" matrix(1 0 0 1 0 0) " stroke-linecap="round" />
	<path d="M 50.03 56.733 v 6.288 c 0.419 0.002 0.836 0.004 1.258 0.004 s 0.839 -0.002 1.258 -0.004 v -6.288 c -0.419 0.002 -0.836 0.004 -1.258 0.004 S 50.449 56.735 50.03 56.733 z" style="stroke: none; stroke-width: 1; stroke-dasharray: none; stroke-linecap: butt; stroke-linejoin: miter; stroke-miterlimit: 10; fill: rgb(196,146,20); fill-rule: nonzero; opacity: 1;" transform=" matrix(1 0 0 1 0 0) " stroke-linecap="round" />
	<path d="M 57.576 62.961 c 0.849 -0.017 1.686 -0.038 2.515 -0.062 v -6.288 c -0.829 0.024 -1.667 0.045 -2.515 0.062 V 62.961 z" style="stroke: none; stroke-width: 1; stroke-dasharray: none; stroke-linecap: butt; stroke-linejoin: miter; stroke-miterlimit: 10; fill: rgb(196,146,20); fill-rule: nonzero; opacity: 1;" transform=" matrix(1 0 0 1 0 0) " stroke-linecap="round" />
	<path d="M 65.121 62.707 c 0.853 -0.041 1.692 -0.085 2.515 -0.133 v -6.288 c -0.823 0.048 -1.662 0.092 -2.515 0.133 V 62.707 z" style="stroke: none; stroke-width: 1; stroke-dasharray: none; stroke-linecap: butt; stroke-linejoin: miter; stroke-miterlimit: 10; fill: rgb(196,146,20); fill-rule: nonzero; opacity: 1;" transform=" matrix(1 0 0 1 0 0) " stroke-linecap="round" />
	<path d="M 72.667 62.223 c 0.865 -0.071 1.701 -0.148 2.515 -0.227 v -6.288 c -0.814 0.08 -1.651 0.156 -2.515 0.227 V 62.223 z" style="stroke: none; stroke-width: 1; stroke-dasharray: none; stroke-linecap: butt; stroke-linejoin: miter; stroke-miterlimit: 10; fill: rgb(196,146,20); fill-rule: nonzero; opacity: 1;" transform=" matrix(1 0 0 1 0 0) " stroke-linecap="round" />
	<path d="M 80.212 61.407 c 0.892 -0.125 1.73 -0.256 2.515 -0.392 v -6.288 c -0.785 0.136 -1.623 0.267 -2.515 0.392 V 61.407 z" style="stroke: none; stroke-width: 1; stroke-dasharray: none; stroke-linecap: butt; stroke-linejoin: miter; stroke-miterlimit: 10; fill: rgb(196,146,20); fill-rule: nonzero; opacity: 1;" transform=" matrix(1 0 0 1 0 0) " stroke-linecap="round" />
	<path d="M 42.485 62.899 c 0.829 0.024 1.667 0.045 2.515 0.062 v -6.288 c -0.849 -0.017 -1.686 -0.038 -2.515 -0.062 V 62.899 z" style="stroke: none; stroke-width: 1; stroke-dasharray: none; stroke-linecap: butt; stroke-linejoin: miter; stroke-miterlimit: 10; fill: rgb(196,146,20); fill-rule: nonzero; opacity: 1;" transform=" matrix(1 0 0 1 0 0) " stroke-linecap="round" />
	<path d="M 34.939 62.574 c 0.823 0.048 1.662 0.092 2.515 0.133 v -6.288 c -0.853 -0.041 -1.692 -0.085 -2.515 -0.133 V 62.574 z" style="stroke: none; stroke-width: 1; stroke-dasharray: none; stroke-linecap: butt; stroke-linejoin: miter; stroke-miterlimit: 10; fill: rgb(196,146,20); fill-rule: nonzero; opacity: 1;" transform=" matrix(1 0 0 1 0 0) " stroke-linecap="round" />
	<path d="M 27.394 61.996 c 0.814 0.08 1.651 0.156 2.515 0.227 v -6.288 c -0.865 -0.071 -1.701 -0.148 -2.515 -0.227 V 61.996 z" style="stroke: none; stroke-width: 1; stroke-dasharray: none; stroke-linecap: butt; stroke-linejoin: miter; stroke-miterlimit: 10; fill: rgb(196,146,20); fill-rule: nonzero; opacity: 1;" transform=" matrix(1 0 0 1 0 0) " stroke-linecap="round" />
	<path d="M 19.849 61.016 c 0.785 0.136 1.623 0.267 2.515 0.392 v -6.288 c -0.892 -0.125 -1.73 -0.256 -2.515 -0.392 V 61.016 z" style="stroke: none; stroke-width: 1; stroke-dasharray: none; stroke-linecap: butt; stroke-linejoin: miter; stroke-miterlimit: 10; fill: rgb(196,146,20); fill-rule: nonzero; opacity: 1;" transform=" matrix(1 0 0 1 0 0) " stroke-linecap="round" />
	<path d="M 88.769 53.115 c -0.572 0.278 -1.326 0.548 -2.269 0.804 v 6.288 c 0.942 -0.257 1.697 -0.526 2.269 -0.804 V 53.115 z" style="stroke: none; stroke-width: 1; stroke-dasharray: none; stroke-linecap: butt; stroke-linejoin: miter; stroke-miterlimit: 10; fill: rgb(196,146,20); fill-rule: nonzero; opacity: 1;" transform=" matrix(1 0 0 1 0 0) " stroke-linecap="round" />
	<path d="M 13.786 53.105 v 6.288 c 0.574 0.282 1.336 0.555 2.29 0.814 v -6.288 C 15.122 53.659 14.36 53.387 13.786 53.105 z" style="stroke: none; stroke-width: 1; stroke-dasharray: none; stroke-linecap: butt; stroke-linejoin: miter; stroke-miterlimit: 10; fill: rgb(196,146,20); fill-rule: nonzero; opacity: 1;" transform=" matrix(1 0 0 1 0 0) " stroke-linecap="round" />
	<ellipse cx="51.292" cy="51.921" rx="38.712" ry="4.821" style="stroke: none; stroke-width: 1; stroke-dasharray: none; stroke-linecap: butt; stroke-linejoin: miter; stroke-miterlimit: 10; fill: rgb(255,217,73); fill-rule: nonzero; opacity: 1;" transform=" matrix(1 0 0 1 0 0) "/>
	<path d="M 3.773 41.856 v 6.288 c 0 2.662 17.332 4.821 38.712 4.821 s 38.712 -2.158 38.712 -4.821 v -6.288 H 3.773 z" style="stroke: none; stroke-width: 1; stroke-dasharray: none; stroke-linecap: butt; stroke-linejoin: miter; stroke-miterlimit: 10; fill: rgb(228,175,24); fill-rule: nonzero; opacity: 1;" transform=" matrix(1 0 0 1 0 0) " stroke-linecap="round" />
	<path d="M 41.227 46.673 v 6.288 c 0.419 0.002 0.836 0.004 1.258 0.004 s 0.839 -0.002 1.258 -0.004 v -6.288 c -0.419 0.002 -0.836 0.004 -1.258 0.004 S 41.646 46.675 41.227 46.673 z" style="stroke: none; stroke-width: 1; stroke-dasharray: none; stroke-linecap: butt; stroke-linejoin: miter; stroke-miterlimit: 10; fill: rgb(196,146,20); fill-rule: nonzero; opacity: 1;" transform=" matrix(1 0 0 1 0 0) " stroke-linecap="round" />
	<path d="M 48.773 52.9 c 0.849 -0.017 1.686 -0.038 2.515 -0.062 V 46.55 c -0.829 0.024 -1.667 0.045 -2.515 0.062 V 52.9 z" style="stroke: none; stroke-width: 1; stroke-dasharray: none; stroke-linecap: butt; stroke-linejoin: miter; stroke-miterlimit: 10; fill: rgb(196,146,20); fill-rule: nonzero; opacity: 1;" transform=" matrix(1 0 0 1 0 0) " stroke-linecap="round" />
	<path d="M 56.318 52.646 c 0.853 -0.041 1.692 -0.085 2.515 -0.133 v -6.288 c -0.823 0.048 -1.662 0.092 -2.515 0.133 V 52.646 z" style="stroke: none; stroke-width: 1; stroke-dasharray: none; stroke-linecap: butt; stroke-linejoin: miter; stroke-miterlimit: 10; fill: rgb(196,146,20); fill-rule: nonzero; opacity: 1;" transform=" matrix(1 0 0 1 0 0) " stroke-linecap="round" />
	<path d="M 63.864 52.163 c 0.865 -0.071 1.701 -0.148 2.515 -0.227 v -6.288 c -0.814 0.08 -1.651 0.156 -2.515 0.227 V 52.163 z" style="stroke: none; stroke-width: 1; stroke-dasharray: none; stroke-linecap: butt; stroke-linejoin: miter; stroke-miterlimit: 10; fill: rgb(196,146,20); fill-rule: nonzero; opacity: 1;" transform=" matrix(1 0 0 1 0 0) " stroke-linecap="round" />
	<path d="M 71.409 51.347 c 0.892 -0.125 1.73 -0.256 2.515 -0.392 v -6.288 c -0.785 0.136 -1.623 0.267 -2.515 0.392 V 51.347 z" style="stroke: none; stroke-width: 1; stroke-dasharray: none; stroke-linecap: butt; stroke-linejoin: miter; stroke-miterlimit: 10; fill: rgb(196,146,20); fill-rule: nonzero; opacity: 1;" transform=" matrix(1 0 0 1 0 0) " stroke-linecap="round" />
	<path d="M 33.682 52.838 c 0.829 0.024 1.667 0.045 2.515 0.062 v -6.288 c -0.849 -0.017 -1.686 -0.038 -2.515 -0.062 V 52.838 z" style="stroke: none; stroke-width: 1; stroke-dasharray: none; stroke-linecap: butt; stroke-linejoin: miter; stroke-miterlimit: 10; fill: rgb(196,146,20); fill-rule: nonzero; opacity: 1;" transform=" matrix(1 0 0 1 0 0) " stroke-linecap="round" />
	<path d="M 26.136 52.514 c 0.823 0.048 1.662 0.092 2.515 0.133 v -6.288 c -0.853 -0.041 -1.692 -0.085 -2.515 -0.133 V 52.514 z" style="stroke: none; stroke-width: 1; stroke-dasharray: none; stroke-linecap: butt; stroke-linejoin: miter; stroke-miterlimit: 10; fill: rgb(196,146,20); fill-rule: nonzero; opacity: 1;" transform=" matrix(1 0 0 1 0 0) " stroke-linecap="round" />
	<path d="M 18.591 51.935 c 0.814 0.08 1.651 0.156 2.515 0.227 v -6.288 c -0.865 -0.071 -1.701 -0.148 -2.515 -0.227 V 51.935 z" style="stroke: none; stroke-width: 1; stroke-dasharray: none; stroke-linecap: butt; stroke-linejoin: miter; stroke-miterlimit: 10; fill: rgb(196,146,20); fill-rule: nonzero; opacity: 1;" transform=" matrix(1 0 0 1 0 0) " stroke-linecap="round" />
	<path d="M 11.045 50.955 c 0.785 0.136 1.623 0.267 2.515 0.392 v -6.288 c -0.892 -0.125 -1.73 -0.256 -2.515 -0.392 V 50.955 z" style="stroke: none; stroke-width: 1; stroke-dasharray: none; stroke-linecap: butt; stroke-linejoin: miter; stroke-miterlimit: 10; fill: rgb(196,146,20); fill-rule: nonzero; opacity: 1;" transform=" matrix(1 0 0 1 0 0) " stroke-linecap="round" />
	<path d="M 79.966 43.055 c -0.572 0.278 -1.326 0.548 -2.269 0.804 v 6.288 c 0.942 -0.257 1.697 -0.526 2.269 -0.804 V 43.055 z" style="stroke: none; stroke-width: 1; stroke-dasharray: none; stroke-linecap: butt; stroke-linejoin: miter; stroke-miterlimit: 10; fill: rgb(196,146,20); fill-rule: nonzero; opacity: 1;" transform=" matrix(1 0 0 1 0 0) " stroke-linecap="round" />
	<path d="M 4.983 43.044 v 6.288 c 0.574 0.282 1.336 0.555 2.29 0.814 v -6.288 C 6.319 43.599 5.557 43.326 4.983 43.044 z" style="stroke: none; stroke-width: 1; stroke-dasharray: none; stroke-linecap: butt; stroke-linejoin: miter; stroke-miterlimit: 10; fill: rgb(196,146,20); fill-rule: nonzero; opacity: 1;" transform=" matrix(1 0 0 1 0 0) " stroke-linecap="round" />
	<ellipse cx="42.482000000000006" cy="41.861" rx="38.712" ry="4.821" style="stroke: none; stroke-width: 1; stroke-dasharray: none; stroke-linecap: butt; stroke-linejoin: miter; stroke-miterlimit: 10; fill: rgb(255,217,73); fill-rule: nonzero; opacity: 1;" transform=" matrix(1 0 0 1 0 0) "/>
	<path d="M 12.576 31.795 v 6.288 c 0 2.662 17.332 4.821 38.712 4.821 S 90 40.746 90 38.083 v -6.288 H 12.576 z" style="stroke: none; stroke-width: 1; stroke-dasharray: none; stroke-linecap: butt; stroke-linejoin: miter; stroke-miterlimit: 10; fill: rgb(228,175,24); fill-rule: nonzero; opacity: 1;" transform=" matrix(1 0 0 1 0 0) " stroke-linecap="round" />
	<path d="M 50.03 36.612 V 42.9 c 0.419 0.002 0.836 0.004 1.258 0.004 s 0.839 -0.002 1.258 -0.004 v -6.288 c -0.419 0.002 -0.836 0.004 -1.258 0.004 S 50.449 36.614 50.03 36.612 z" style="stroke: none; stroke-width: 1; stroke-dasharray: none; stroke-linecap: butt; stroke-linejoin: miter; stroke-miterlimit: 10; fill: rgb(196,146,20); fill-rule: nonzero; opacity: 1;" transform=" matrix(1 0 0 1 0 0) " stroke-linecap="round" />
	<path d="M 57.576 42.84 c 0.849 -0.017 1.686 -0.038 2.515 -0.062 V 36.49 c -0.829 0.024 -1.667 0.045 -2.515 0.062 V 42.84 z" style="stroke: none; stroke-width: 1; stroke-dasharray: none; stroke-linecap: butt; stroke-linejoin: miter; stroke-miterlimit: 10; fill: rgb(196,146,20); fill-rule: nonzero; opacity: 1;" transform=" matrix(1 0 0 1 0 0) " stroke-linecap="round" />
	<path d="M 65.121 42.586 c 0.853 -0.041 1.692 -0.085 2.515 -0.133 v -6.288 c -0.823 0.048 -1.662 0.092 -2.515 0.133 V 42.586 z" style="stroke: none; stroke-width: 1; stroke-dasharray: none; stroke-linecap: butt; stroke-linejoin: miter; stroke-miterlimit: 10; fill: rgb(196,146,20); fill-rule: nonzero; opacity: 1;" transform=" matrix(1 0 0 1 0 0) " stroke-linecap="round" />
	<path d="M 72.667 42.102 c 0.865 -0.071 1.701 -0.148 2.515 -0.227 v -6.288 c -0.814 0.08 -1.651 0.156 -2.515 0.227 V 42.102 z" style="stroke: none; stroke-width: 1; stroke-dasharray: none; stroke-linecap: butt; stroke-linejoin: miter; stroke-miterlimit: 10; fill: rgb(196,146,20); fill-rule: nonzero; opacity: 1;" transform=" matrix(1 0 0 1 0 0) " stroke-linecap="round" />
	<path d="M 80.212 41.286 c 0.892 -0.125 1.73 -0.256 2.515 -0.392 v -6.288 c -0.785 0.136 -1.623 0.267 -2.515 0.392 V 41.286 z" style="stroke: none; stroke-width: 1; stroke-dasharray: none; stroke-linecap: butt; stroke-linejoin: miter; stroke-miterlimit: 10; fill: rgb(196,146,20); fill-rule: nonzero; opacity: 1;" transform=" matrix(1 0 0 1 0 0) " stroke-linecap="round" />
	<path d="M 42.485 42.777 c 0.829 0.024 1.667 0.045 2.515 0.062 v -6.288 c -0.849 -0.017 -1.686 -0.038 -2.515 -0.062 V 42.777 z" style="stroke: none; stroke-width: 1; stroke-dasharray: none; stroke-linecap: butt; stroke-linejoin: miter; stroke-miterlimit: 10; fill: rgb(196,146,20); fill-rule: nonzero; opacity: 1;" transform=" matrix(1 0 0 1 0 0) " stroke-linecap="round" />
	<path d="M 34.939 42.453 c 0.823 0.048 1.662 0.092 2.515 0.133 v -6.288 c -0.853 -0.041 -1.692 -0.085 -2.515 -0.133 V 42.453 z" style="stroke: none; stroke-width: 1; stroke-dasharray: none; stroke-linecap: butt; stroke-linejoin: miter; stroke-miterlimit: 10; fill: rgb(196,146,20); fill-rule: nonzero; opacity: 1;" transform=" matrix(1 0 0 1 0 0) " stroke-linecap="round" />
	<path d="M 27.394 41.875 c 0.814 0.08 1.651 0.156 2.515 0.227 v -6.288 c -0.865 -0.071 -1.701 -0.148 -2.515 -0.227 V 41.875 z" style="stroke: none; stroke-width: 1; stroke-dasharray: none; stroke-linecap: butt; stroke-linejoin: miter; stroke-miterlimit: 10; fill: rgb(196,146,20); fill-rule: nonzero; opacity: 1;" transform=" matrix(1 0 0 1 0 0) " stroke-linecap="round" />
	<path d="M 19.849 40.895 c 0.785 0.136 1.623 0.267 2.515 0.392 v -6.288 c -0.892 -0.125 -1.73 -0.256 -2.515 -0.392 V 40.895 z" style="stroke: none; stroke-width: 1; stroke-dasharray: none; stroke-linecap: butt; stroke-linejoin: miter; stroke-miterlimit: 10; fill: rgb(196,146,20); fill-rule: nonzero; opacity: 1;" transform=" matrix(1 0 0 1 0 0) " stroke-linecap="round" />
	<path d="M 88.769 32.994 c -0.572 0.278 -1.326 0.548 -2.269 0.804 v 6.288 c 0.942 -0.257 1.697 -0.526 2.269 -0.804 V 32.994 z" style="stroke: none; stroke-width: 1; stroke-dasharray: none; stroke-linecap: butt; stroke-linejoin: miter; stroke-miterlimit: 10; fill: rgb(196,146,20); fill-rule: nonzero; opacity: 1;" transform=" matrix(1 0 0 1 0 0) " stroke-linecap="round" />
	<path d="M 13.786 32.984 v 6.288 c 0.574 0.282 1.336 0.555 2.29 0.814 v -6.288 C 15.122 33.538 14.36 33.266 13.786 32.984 z" style="stroke: none; stroke-width: 1; stroke-dasharray: none; stroke-linecap: butt; stroke-linejoin: miter; stroke-miterlimit: 10; fill: rgb(196,146,20); fill-rule: nonzero; opacity: 1;" transform=" matrix(1 0 0 1 0 0) " stroke-linecap="round" />
	<ellipse cx="51.292" cy="31.790999999999997" rx="38.712" ry="4.821" style="stroke: none; stroke-width: 1; stroke-dasharray: none; stroke-linecap: butt; stroke-linejoin: miter; stroke-miterlimit: 10; fill: rgb(255,217,73); fill-rule: nonzero; opacity: 1;" transform=" matrix(1 0 0 1 0 0) "/>
	<path d="M 6.288 21.735 v 6.288 c 0 2.662 17.332 4.821 38.712 4.821 s 38.712 -2.158 38.712 -4.821 v -6.288 H 6.288 z" style="stroke: none; stroke-width: 1; stroke-dasharray: none; stroke-linecap: butt; stroke-linejoin: miter; stroke-miterlimit: 10; fill: rgb(228,175,24); fill-rule: nonzero; opacity: 1;" transform=" matrix(1 0 0 1 0 0) " stroke-linecap="round" />
	<path d="M 43.742 26.552 v 6.288 c 0.419 0.002 0.836 0.004 1.258 0.004 s 0.839 -0.002 1.258 -0.004 v -6.288 c -0.419 0.002 -0.836 0.004 -1.258 0.004 S 44.161 26.553 43.742 26.552 z" style="stroke: none; stroke-width: 1; stroke-dasharray: none; stroke-linecap: butt; stroke-linejoin: miter; stroke-miterlimit: 10; fill: rgb(196,146,20); fill-rule: nonzero; opacity: 1;" transform=" matrix(1 0 0 1 0 0) " stroke-linecap="round" />
	<path d="M 51.288 32.779 c 0.849 -0.017 1.686 -0.038 2.515 -0.062 v -6.288 c -0.829 0.024 -1.667 0.045 -2.515 0.062 V 32.779 z" style="stroke: none; stroke-width: 1; stroke-dasharray: none; stroke-linecap: butt; stroke-linejoin: miter; stroke-miterlimit: 10; fill: rgb(196,146,20); fill-rule: nonzero; opacity: 1;" transform=" matrix(1 0 0 1 0 0) " stroke-linecap="round" />
	<path d="M 58.833 32.525 c 0.853 -0.041 1.692 -0.085 2.515 -0.133 v -6.288 c -0.823 0.048 -1.662 0.092 -2.515 0.133 V 32.525 z" style="stroke: none; stroke-width: 1; stroke-dasharray: none; stroke-linecap: butt; stroke-linejoin: miter; stroke-miterlimit: 10; fill: rgb(196,146,20); fill-rule: nonzero; opacity: 1;" transform=" matrix(1 0 0 1 0 0) " stroke-linecap="round" />
	<path d="M 66.379 32.041 c 0.865 -0.071 1.701 -0.148 2.515 -0.227 v -6.288 c -0.814 0.08 -1.651 0.156 -2.515 0.227 V 32.041 z" style="stroke: none; stroke-width: 1; stroke-dasharray: none; stroke-linecap: butt; stroke-linejoin: miter; stroke-miterlimit: 10; fill: rgb(196,146,20); fill-rule: nonzero; opacity: 1;" transform=" matrix(1 0 0 1 0 0) " stroke-linecap="round" />
	<path d="M 73.924 31.225 c 0.892 -0.125 1.73 -0.256 2.515 -0.392 v -6.288 c -0.785 0.136 -1.623 0.267 -2.515 0.392 V 31.225 z" style="stroke: none; stroke-width: 1; stroke-dasharray: none; stroke-linecap: butt; stroke-linejoin: miter; stroke-miterlimit: 10; fill: rgb(196,146,20); fill-rule: nonzero; opacity: 1;" transform=" matrix(1 0 0 1 0 0) " stroke-linecap="round" />
	<path d="M 36.197 32.717 c 0.829 0.024 1.667 0.045 2.515 0.062 v -6.288 c -0.849 -0.017 -1.686 -0.038 -2.515 -0.062 V 32.717 z" style="stroke: none; stroke-width: 1; stroke-dasharray: none; stroke-linecap: butt; stroke-linejoin: miter; stroke-miterlimit: 10; fill: rgb(196,146,20); fill-rule: nonzero; opacity: 1;" transform=" matrix(1 0 0 1 0 0) " stroke-linecap="round" />
	<path d="M 28.652 32.393 c 0.823 0.048 1.662 0.092 2.515 0.133 v -6.288 c -0.853 -0.041 -1.692 -0.085 -2.515 -0.133 V 32.393 z" style="stroke: none; stroke-width: 1; stroke-dasharray: none; stroke-linecap: butt; stroke-linejoin: miter; stroke-miterlimit: 10; fill: rgb(196,146,20); fill-rule: nonzero; opacity: 1;" transform=" matrix(1 0 0 1 0 0) " stroke-linecap="round" />
	<path d="M 21.106 31.814 c 0.814 0.08 1.651 0.156 2.515 0.227 v -6.288 c -0.865 -0.071 -1.701 -0.148 -2.515 -0.227 V 31.814 z" style="stroke: none; stroke-width: 1; stroke-dasharray: none; stroke-linecap: butt; stroke-linejoin: miter; stroke-miterlimit: 10; fill: rgb(196,146,20); fill-rule: nonzero; opacity: 1;" transform=" matrix(1 0 0 1 0 0) " stroke-linecap="round" />
	<path d="M 13.561 30.834 c 0.785 0.136 1.623 0.267 2.515 0.392 v -6.288 c -0.892 -0.125 -1.73 -0.256 -2.515 -0.392 V 30.834 z" style="stroke: none; stroke-width: 1; stroke-dasharray: none; stroke-linecap: butt; stroke-linejoin: miter; stroke-miterlimit: 10; fill: rgb(196,146,20); fill-rule: nonzero; opacity: 1;" transform=" matrix(1 0 0 1 0 0) " stroke-linecap="round" />
	<path d="M 82.481 22.933 c -0.572 0.278 -1.326 0.548 -2.269 0.804 v 6.288 c 0.942 -0.257 1.697 -0.526 2.269 -0.804 V 22.933 z" style="stroke: none; stroke-width: 1; stroke-dasharray: none; stroke-linecap: butt; stroke-linejoin: miter; stroke-miterlimit: 10; fill: rgb(196,146,20); fill-rule: nonzero; opacity: 1;" transform=" matrix(1 0 0 1 0 0) " stroke-linecap="round" />
	<path d="M 7.498 22.923 v 6.288 c 0.574 0.282 1.336 0.555 2.29 0.814 v -6.288 C 8.834 23.478 8.072 23.205 7.498 22.923 z" style="stroke: none; stroke-width: 1; stroke-dasharray: none; stroke-linecap: butt; stroke-linejoin: miter; stroke-miterlimit: 10; fill: rgb(196,146,20); fill-rule: nonzero; opacity: 1;" transform=" matrix(1 0 0 1 0 0) " stroke-linecap="round" />
	<ellipse cx="45.002" cy="21.731" rx="38.712" ry="4.821" style="stroke: none; stroke-width: 1; stroke-dasharray: none; stroke-linecap: butt; stroke-linejoin: miter; stroke-miterlimit: 10; fill: rgb(255,217,73); fill-rule: nonzero; opacity: 1;" transform=" matrix(1 0 0 1 0 0) "/>
	<path d="M 11.318 11.674 v 6.288 c 0 2.662 17.332 4.821 38.712 4.821 s 38.712 -2.158 38.712 -4.821 v -6.288 H 11.318 z" style="stroke: none; stroke-width: 1; stroke-dasharray: none; stroke-linecap: butt; stroke-linejoin: miter; stroke-miterlimit: 10; fill: rgb(228,175,24); fill-rule: nonzero; opacity: 1;" transform=" matrix(1 0 0 1 0 0) " stroke-linecap="round" />
	<path d="M 48.773 16.491 v 6.288 c 0.419 0.002 0.836 0.004 1.258 0.004 s 0.839 -0.002 1.258 -0.004 v -6.288 c -0.419 0.002 -0.836 0.004 -1.258 0.004 S 49.191 16.493 48.773 16.491 z" style="stroke: none; stroke-width: 1; stroke-dasharray: none; stroke-linecap: butt; stroke-linejoin: miter; stroke-miterlimit: 10; fill: rgb(196,146,20); fill-rule: nonzero; opacity: 1;" transform=" matrix(1 0 0 1 0 0) " stroke-linecap="round" />
	<path d="M 56.318 22.719 c 0.849 -0.017 1.686 -0.038 2.515 -0.062 v -6.288 c -0.829 0.024 -1.667 0.045 -2.515 0.062 V 22.719 z" style="stroke: none; stroke-width: 1; stroke-dasharray: none; stroke-linecap: butt; stroke-linejoin: miter; stroke-miterlimit: 10; fill: rgb(196,146,20); fill-rule: nonzero; opacity: 1;" transform=" matrix(1 0 0 1 0 0) " stroke-linecap="round" />
	<path d="M 63.864 22.465 c 0.853 -0.041 1.692 -0.085 2.515 -0.133 v -6.288 c -0.823 0.048 -1.662 0.092 -2.515 0.133 V 22.465 z" style="stroke: none; stroke-width: 1; stroke-dasharray: none; stroke-linecap: butt; stroke-linejoin: miter; stroke-miterlimit: 10; fill: rgb(196,146,20); fill-rule: nonzero; opacity: 1;" transform=" matrix(1 0 0 1 0 0) " stroke-linecap="round" />
	<path d="M 71.409 21.981 c 0.865 -0.071 1.701 -0.148 2.515 -0.227 v -6.288 c -0.814 0.08 -1.651 0.156 -2.515 0.227 V 21.981 z" style="stroke: none; stroke-width: 1; stroke-dasharray: none; stroke-linecap: butt; stroke-linejoin: miter; stroke-miterlimit: 10; fill: rgb(196,146,20); fill-rule: nonzero; opacity: 1;" transform=" matrix(1 0 0 1 0 0) " stroke-linecap="round" />
	<path d="M 78.955 21.165 c 0.892 -0.125 1.73 -0.256 2.515 -0.392 v -6.288 c -0.785 0.136 -1.623 0.267 -2.515 0.392 V 21.165 z" style="stroke: none; stroke-width: 1; stroke-dasharray: none; stroke-linecap: butt; stroke-linejoin: miter; stroke-miterlimit: 10; fill: rgb(196,146,20); fill-rule: nonzero; opacity: 1;" transform=" matrix(1 0 0 1 0 0) " stroke-linecap="round" />
	<path d="M 41.227 22.656 c 0.829 0.024 1.667 0.045 2.515 0.062 v -6.288 c -0.849 -0.017 -1.686 -0.038 -2.515 -0.062 V 22.656 z" style="stroke: none; stroke-width: 1; stroke-dasharray: none; stroke-linecap: butt; stroke-linejoin: miter; stroke-miterlimit: 10; fill: rgb(196,146,20); fill-rule: nonzero; opacity: 1;" transform=" matrix(1 0 0 1 0 0) " stroke-linecap="round" />
	<path d="M 33.682 22.332 c 0.823 0.048 1.662 0.092 2.515 0.133 v -6.288 c -0.853 -0.041 -1.692 -0.085 -2.515 -0.133 V 22.332 z" style="stroke: none; stroke-width: 1; stroke-dasharray: none; stroke-linecap: butt; stroke-linejoin: miter; stroke-miterlimit: 10; fill: rgb(196,146,20); fill-rule: nonzero; opacity: 1;" transform=" matrix(1 0 0 1 0 0) " stroke-linecap="round" />
	<path d="M 26.136 21.754 c 0.814 0.08 1.651 0.156 2.515 0.227 v -6.288 c -0.865 -0.071 -1.701 -0.148 -2.515 -0.227 V 21.754 z" style="stroke: none; stroke-width: 1; stroke-dasharray: none; stroke-linecap: butt; stroke-linejoin: miter; stroke-miterlimit: 10; fill: rgb(196,146,20); fill-rule: nonzero; opacity: 1;" transform=" matrix(1 0 0 1 0 0) " stroke-linecap="round" />
	<path d="M 18.591 20.773 c 0.785 0.136 1.623 0.267 2.515 0.392 v -6.288 c -0.892 -0.125 -1.73 -0.256 -2.515 -0.392 V 20.773 z" style="stroke: none; stroke-width: 1; stroke-dasharray: none; stroke-linecap: butt; stroke-linejoin: miter; stroke-miterlimit: 10; fill: rgb(196,146,20); fill-rule: nonzero; opacity: 1;" transform=" matrix(1 0 0 1 0 0) " stroke-linecap="round" />
	<path d="M 87.511 12.873 c -0.572 0.278 -1.326 0.548 -2.269 0.804 v 6.288 c 0.942 -0.257 1.697 -0.526 2.269 -0.804 V 12.873 z" style="stroke: none; stroke-width: 1; stroke-dasharray: none; stroke-linecap: butt; stroke-linejoin: miter; stroke-miterlimit: 10; fill: rgb(196,146,20); fill-rule: nonzero; opacity: 1;" transform=" matrix(1 0 0 1 0 0) " stroke-linecap="round" />
	<path d="M 12.528 12.863 v 6.288 c 0.574 0.282 1.336 0.555 2.29 0.814 v -6.288 C 13.864 13.417 13.103 13.145 12.528 12.863 z" style="stroke: none; stroke-width: 1; stroke-dasharray: none; stroke-linecap: butt; stroke-linejoin: miter; stroke-miterlimit: 10; fill: rgb(196,146,20); fill-rule: nonzero; opacity: 1;" transform=" matrix(1 0 0 1 0 0) " stroke-linecap="round" />
	<ellipse cx="50.032000000000004" cy="11.671" rx="38.712" ry="4.821" style="stroke: none; stroke-width: 1; stroke-dasharray: none; stroke-linecap: butt; stroke-linejoin: miter; stroke-miterlimit: 10; fill: rgb(255,217,73); fill-rule: nonzero; opacity: 1;" transform=" matrix(1 0 0 1 0 0) "/>
</g>
</svg>